<?xml version="1.0" ?><!DOCTYPE svg  PUBLIC '-//W3C//DTD SVG 1.1//EN'  'http://www.w3.org/Graphics/SVG/1.1/DTD/svg11.dtd'><svg height="10.2276mm" style="shape-rendering:geometricPrecision; text-rendering:geometricPrecision; image-rendering:optimizeQuality; fill-rule:evenodd; clip-rule:evenodd" version="1.1" viewBox="0 0 1023 1023" width="10.2276mm" xml:space="preserve" xmlns="http://www.w3.org/2000/svg" xmlns:xlink="http://www.w3.org/1999/xlink"><defs><style type="text/css">
   <![CDATA[
    .fil0 {fill:#FEFEFE}
    .fil1 {fill:#1D1819}
   ]]>
  </style></defs><g id="Layer_x0020_1"><g id="_792331440"><polygon class="fil0" points="1023,1023 576,1023 576,958 511,958 511,1023 65,1023 65,893 130,893 130,832 0,832 0,641 65,641 65,576 130,576 130,511 65,511 65,386 0,386 0,256 130,256 191,256 191,191 130,191 130,130 65,130 65,4 191,4 191,65 382,65 382,4 637,4 637,65 767,65 767,4 958,4 958,65 893,65 893,130 828,130 828,191 767,191 767,256 893,256 893,191 958,191 1023,191 1023,321 958,321 958,386 1023,386 1023,702 958,702 958,767 893,767 893,832 958,832 958,893 1023,893 "/><path class="fil1" d="M382 0l255 0 0 65 130 0 0 -65 191 0 0 65 -65 0 0 65 -65 0 0 61 -61 0 0 65 126 0 65 0 0 65 0 65 65 0 0 316 -65 0 -65 0 0 65 -65 0 0 -65 -61 0 -130 0 0 130 65 0 0 -65 65 0 0 -65 0 -61 126 0 0 -65 65 0 0 126 0 65 -65 0 0 65 65 0 0 61 0 65 -130 0 0 -65 130 0 65 0 0 65 0 65 -65 0 -382 0 0 -65 -65 0 0 65 -381 0 -65 0 0 -65 0 -65 65 0 126 0 65 0 0 65 125 0 0 -65 -64 0 0 -61 0 -65 64 0 0 65 -64 0 -126 0 0 61 0 65 -126 0 0 -65 0 -61 -65 0 -65 0 0 -65 0 -126 65 0 126 0 0 -65 65 0 0 65 0 61 -65 0 0 65 -126 0 0 -126 0 -65 65 0 0 -65 -65 0 0 -125 -65 0 0 -130 65 0 65 0 61 0 130 0 0 -65 61 0 0 -126 0 -65zm-317 4l126 0 0 61 130 0 61 0 255 0 0 65 65 0 0 61 0 193 -130 0 0 62 -61 0 -194 0 -61 0 0 -60 -65 0 -61 0 -65 0 0 -65 65 0 0 65 0 125 126 0 0 -65 -65 0 0 -60 0 -65 0 -65 0 -65 -61 0 0 -61 -65 0 0 -126zm446 187l126 0 0 65 -65 0 0 65 -126 0 0 -65 65 0 0 -65zm-194 255l0 65 194 0 0 -65 0 -60 -194 0 0 60zm255 65l65 0 0 -65 -65 0 0 65zm130 0l65 0 0 65 126 0 0 -65 65 0 0 -125 -65 0 0 -65 -126 0 0 65 -65 0 0 60 0 65zm-191 130l0 -65 191 0 0 65 -65 0 -61 0 -65 0zm-65 -65l0 65 -129 0 0 -65 129 0zm-64 191l-61 0 0 -65 61 0 0 65zm64 -65l130 0 0 130 -65 0 0 -65 -65 0 0 -65zm191 191l65 0 0 -61 65 0 61 0 0 61 -61 0 0 65 -130 0 0 -65zm321 -572l65 0 0 -65 0 -65 -65 0 -65 0 0 65 0 65 65 0z"/></g></g></svg>