<svg xmlns="http://www.w3.org/2000/svg" viewBox="0 0 24 24" id="Health-Virus--Streamline-Pixel" height="24" width="24"><desc>Health Virus Streamline Icon: https://streamlinehq.com</desc><title>health-virus</title><g><path d="M22.86 1.1475h-1.1400000000000001V0h-1.1475v1.1475h-1.1400000000000001v1.1400000000000001h-1.1400000000000001v1.1400000000000001h1.1400000000000001V4.574999999999999h1.1400000000000001v1.1400000000000001h1.1475V4.574999999999999h1.1400000000000001V3.4275H24V2.2874999999999996h-1.1400000000000001Zm-1.1400000000000001 2.2800000000000002h-1.1475V2.2874999999999996h1.1475Z" fill="#000000" stroke-width="0.75"></path><path d="M22.86 18.285h-1.1400000000000001v-1.1400000000000001h-1.1475v1.1400000000000001h-1.1400000000000001v1.1475h-1.1400000000000001v1.1400000000000001h1.1400000000000001v1.1475h1.1400000000000001v1.1400000000000001h1.1475v-1.1400000000000001h1.1400000000000001v-1.1475H24v-1.1400000000000001h-1.1400000000000001Zm-1.1400000000000001 2.2874999999999996h-1.1475v-1.1400000000000001h1.1475Z" fill="#000000" stroke-width="0.75"></path><path d="M21.72 13.7175h1.1400000000000001v1.1400000000000001h-1.1400000000000001Z" fill="#000000" stroke-width="0.75"></path><path d="M21.72 9.1425h1.1400000000000001v1.1475h-1.1400000000000001Z" fill="#000000" stroke-width="0.75"></path><path d="M17.145 14.857499999999998h1.1475v1.1475h-1.1475Z" fill="#000000" stroke-width="0.75"></path><path d="M17.145 8.0025h1.1475v1.1400000000000001h-1.1475Z" fill="#000000" stroke-width="0.75"></path><path d="M16.005 16.005h1.1400000000000001v1.1400000000000001h-1.1400000000000001Z" fill="#000000" stroke-width="0.75"></path><path d="M16.005 6.862500000000001h1.1400000000000001v1.1400000000000001h-1.1400000000000001Z" fill="#000000" stroke-width="0.75"></path><path d="M14.857499999999998 21.72h1.1475v1.1400000000000001h-1.1475Z" fill="#000000" stroke-width="0.75"></path><path d="M14.857499999999998 17.145h1.1475v1.1400000000000001h-1.1475Z" fill="#000000" stroke-width="0.75"></path><path d="M6.862500000000001 10.290000000000001v1.1400000000000001H5.715v-1.1400000000000001H4.574999999999999v3.4275h1.1400000000000001v-1.1400000000000001h1.1475v1.1400000000000001h1.1400000000000001v2.2874999999999996h2.2874999999999996v1.1400000000000001h1.1400000000000001v1.1400000000000001h-1.1400000000000001v1.1475h3.4275v-1.1475h-1.1400000000000001v-1.1400000000000001h1.1400000000000001v-1.1400000000000001h2.2874999999999996v-2.2874999999999996h1.1400000000000001v-1.1400000000000001h1.1475v1.1400000000000001h1.1400000000000001v-3.4275h-1.1400000000000001v1.1400000000000001h-1.1475v-1.1400000000000001h-1.1400000000000001v-2.2874999999999996h-2.2874999999999996V6.862500000000001h-1.1400000000000001V5.715h1.1400000000000001V4.574999999999999h-3.4275v1.1400000000000001h1.1400000000000001v1.1475h-1.1400000000000001v1.1400000000000001h-2.2874999999999996v2.2874999999999996Zm7.995 1.1400000000000001v1.1475h-1.1400000000000001v-1.1475Zm-2.2800000000000002 -2.2874999999999996h1.1400000000000001v1.1475h-1.1400000000000001Zm-1.1475 4.574999999999999v1.1400000000000001h-1.1400000000000001v-1.1400000000000001Zm-2.2800000000000002 -3.4275h1.1400000000000001v1.1400000000000001H9.149999999999999Z" fill="#000000" stroke-width="0.75"></path><path d="M14.857499999999998 5.715h1.1475v1.1475h-1.1475Z" fill="#000000" stroke-width="0.75"></path><path d="M14.857499999999998 1.1475h1.1475v1.1400000000000001h-1.1475Z" fill="#000000" stroke-width="0.75"></path><path d="M9.149999999999999 21.72h1.1400000000000001v1.1400000000000001H9.149999999999999Z" fill="#000000" stroke-width="0.75"></path><path d="M9.149999999999999 1.1475h1.1400000000000001v1.1400000000000001H9.149999999999999Z" fill="#000000" stroke-width="0.75"></path><path d="M8.0025 17.145h1.1475v1.1400000000000001h-1.1475Z" fill="#000000" stroke-width="0.75"></path><path d="M8.0025 5.715h1.1475v1.1475h-1.1475Z" fill="#000000" stroke-width="0.75"></path><path d="M6.862500000000001 16.005h1.1400000000000001v1.1400000000000001H6.862500000000001Z" fill="#000000" stroke-width="0.75"></path><path d="M6.862500000000001 6.862500000000001h1.1400000000000001v1.1400000000000001H6.862500000000001Z" fill="#000000" stroke-width="0.75"></path><path d="M5.715 14.857499999999998h1.1475v1.1475H5.715Z" fill="#000000" stroke-width="0.75"></path><path d="M5.715 8.0025h1.1475v1.1400000000000001H5.715Z" fill="#000000" stroke-width="0.75"></path><path d="M4.574999999999999 24v-1.1400000000000001h1.1400000000000001v-1.1400000000000001h1.1475v-1.1475H5.715v-1.1400000000000001H4.574999999999999v-1.1475H3.435v1.1475H2.2874999999999996v1.1400000000000001H1.1475v1.1475h1.1400000000000001v1.1400000000000001h1.1475V24Zm-1.1400000000000001 -3.4275H4.574999999999999v1.1475H3.435Z" fill="#000000" stroke-width="0.75"></path><path d="M1.1475 14.857499999999998h1.1400000000000001v1.1475H1.1475Z" fill="#000000" stroke-width="0.75"></path><path d="M1.1475 10.290000000000001h1.1400000000000001v1.1400000000000001H1.1475Z" fill="#000000" stroke-width="0.75"></path><path d="M1.1475 6.862500000000001h1.1400000000000001v1.1400000000000001h1.1475V6.862500000000001H4.574999999999999V5.715h1.1400000000000001V4.574999999999999H4.574999999999999V3.4275H3.435V2.2874999999999996H2.2874999999999996v1.1400000000000001H1.1475V4.574999999999999H0v1.1400000000000001h1.1475ZM2.2874999999999996 4.574999999999999h1.1475v1.1400000000000001H2.2874999999999996Z" fill="#000000" stroke-width="0.75"></path></g></svg>