<?xml version="1.0" ?><!DOCTYPE svg  PUBLIC '-//W3C//DTD SVG 1.1//EN'  'http://www.w3.org/Graphics/SVG/1.1/DTD/svg11.dtd'><svg height="10.2276mm" style="shape-rendering:geometricPrecision; text-rendering:geometricPrecision; image-rendering:optimizeQuality; fill-rule:evenodd; clip-rule:evenodd" version="1.1" viewBox="0 0 828 1023" width="8.2795mm" xml:space="preserve" xmlns="http://www.w3.org/2000/svg" xmlns:xlink="http://www.w3.org/1999/xlink"><defs><style type="text/css">
   <![CDATA[
    .fil0 {fill:#FEFEFE}
    .fil1 {fill:#1D1819}
   ]]>
  </style></defs><g id="Layer_x0020_1"><g id="_790633360"><polygon class="fil0" points="828,897 828,1023 572,1023 572,958 321,958 321,1023 0,1023 0,897 65,897 65,832 126,832 126,767 65,767 65,576 117,576 126,576 191,576 191,515 126,515 126,445 65,445 65,316 126,316 126,195 191,195 191,130 256,130 256,65 317,65 317,0 572,0 572,65 637,65 637,130 702,130 702,195 765,195 765,321 828,321 828,515 698,515 698,576 763,576 763,641 828,641 828,767 763,767 763,897 "/><path class="fil1" d="M317 0l255 0 0 65 65 0 0 65 65 0 0 65 63 0 0 126 63 0 0 127 0 67 -63 0 -67 0 0 61 65 0 0 65 65 0 0 126 -65 0 -61 0 0 65 -130 0 0 65 -251 0 0 -130 -65 0 0 65 -65 0 0 -65 -65 0 -61 0 0 -126 0 -65 61 0 65 0 0 -61 -65 0 0 -67 0 -132 -61 0 0 132 61 0 65 0 0 -62 65 0 0 -65 11 0 50 0 65 0 0 -65 -65 0 0 65 0 65 65 0 0 62 64 0 0 -62 126 0 0 -65 65 0 0 65 65 0 0 62 63 0 0 -127 -63 0 0 -126 -65 0 0 -65 -65 0 0 -65 -255 0 -61 0 0 65 -65 0 0 65 -65 0 0 121c0,0 22,1 65,1l0 -122 65 0 0 -65 61 0 0 -65 0 -65zm446 767l0 -126 -65 0 -126 0 0 126 -61 0 -65 0 0 65 65 0 0 -65 0 -126 -65 0 0 65 -125 0 0 -65 -69 0 0 65 -61 0 0 -65 -65 0 0 126 0 65 -61 0 0 65 0 61 191 0 0 -61 -191 0 -65 0 0 61 0 65 65 0 191 0 30 0 35 0 0 -65 251 0 191 0 0 -61 0 -11 0 -54 0 -65zm0 130l65 0 0 61 0 65 -256 0 0 -65 0 -61 191 0zm-252 -382l-65 0 0 61 65 0 0 -61zm-259 61l69 0 0 -61 -69 0 0 61zm320 -128l65 0 0 -62 -65 0 0 62z"/></g></g></svg>