<?xml version="1.0" encoding="iso-8859-1"?>
<!-- Uploaded to: SVG Repo, www.svgrepo.com, Generator: SVG Repo Mixer Tools -->
<svg fill="#000000" height="800px" width="800px" version="1.1" id="Layer_1" xmlns="http://www.w3.org/2000/svg" xmlns:xlink="http://www.w3.org/1999/xlink" 
	 viewBox="0 0 503.607 503.607" xml:space="preserve">
<g>
	<g>
		<path d="M453.246,0H92.328C64.604,0,42.051,22.553,42.051,50.277v377.789H0v25.18c0,27.774,22.587,50.361,50.361,50.361h318.951
			c27.774,0,50.361-22.587,50.361-50.361V251.803h83.934V50.361C503.607,22.587,481.02,0,453.246,0z M310.557,67.148h25.18
			c4.633,0,8.393,3.76,8.393,8.393s-3.76,8.393-8.393,8.393h-25.18c-4.633,0-8.393-3.76-8.393-8.393S305.924,67.148,310.557,67.148z
			 M276.984,293.771c-4.633,0-8.393-3.76-8.393-8.393c0-4.633,3.76-8.393,8.393-8.393c4.633,0,8.393,3.76,8.393,8.393
			C285.377,290.01,281.617,293.771,276.984,293.771z M285.377,369.311c0,4.633-3.76,8.393-8.393,8.393
			c-4.633,0-8.393-3.76-8.393-8.393s3.76-8.393,8.393-8.393C281.617,360.918,285.377,364.678,285.377,369.311z M276.984,235.016
			c4.633,0,8.393,3.76,8.393,8.393s-3.76,8.393-8.393,8.393c-4.633,0-8.393-3.76-8.393-8.393S272.35,235.016,276.984,235.016z
			 M268.59,159.475c0-4.633,3.76-8.393,8.393-8.393c4.633,0,8.393,3.76,8.393,8.393s-3.76,8.393-8.393,8.393
			C272.35,167.869,268.59,164.109,268.59,159.475z M293.771,318.951c4.633,0,8.393,3.76,8.393,8.393s-3.76,8.393-8.393,8.393
			c-4.633,0-8.393-3.76-8.393-8.393S289.137,318.951,293.771,318.951z M293.771,209.836c-4.633,0-8.393-3.76-8.393-8.393
			s3.76-8.393,8.393-8.393c4.633,0,8.393,3.76,8.393,8.393S298.404,209.836,293.771,209.836z M335.738,251.803h-25.18
			c-4.633,0-8.393-3.76-8.393-8.393s3.76-8.393,8.393-8.393h25.18c4.633,0,8.393,3.76,8.393,8.393S340.371,251.803,335.738,251.803z
			 M344.131,285.377c0,4.633-3.76,8.393-8.393,8.393h-25.18c-4.633,0-8.393-3.76-8.393-8.393c0-4.633,3.76-8.393,8.393-8.393h25.18
			C340.371,276.984,344.131,280.744,344.131,285.377z M302.164,159.475c0-4.633,3.76-8.393,8.393-8.393h25.18
			c4.633,0,8.393,3.76,8.393,8.393s-3.76,8.393-8.393,8.393h-25.18C305.924,167.869,302.164,164.109,302.164,159.475z
			 M293.771,109.115c4.633,0,8.393,3.76,8.393,8.393s-3.76,8.393-8.393,8.393c-4.633,0-8.393-3.76-8.393-8.393
			S289.137,109.115,293.771,109.115z M276.984,67.148c4.633,0,8.393,3.76,8.393,8.393s-3.76,8.393-8.393,8.393
			c-4.633,0-8.393-3.76-8.393-8.393S272.35,67.148,276.984,67.148z M226.623,67.148h16.787c4.633,0,8.393,3.76,8.393,8.393
			s-3.76,8.393-8.393,8.393h-16.787c-4.633,0-8.393-3.76-8.393-8.393S221.99,67.148,226.623,67.148z M193.049,67.148
			c4.633,0,8.393,3.76,8.393,8.393s-3.76,8.393-8.393,8.393s-8.393-3.76-8.393-8.393S188.416,67.148,193.049,67.148z
			 M193.049,109.115h67.148c4.633,0,8.393,3.76,8.393,8.393s-3.76,8.393-8.393,8.393h-67.148c-4.633,0-8.393-3.76-8.393-8.393
			S188.416,109.115,193.049,109.115z M251.803,159.475c0,4.633-3.76,8.393-8.393,8.393h-16.787c-4.633,0-8.393-3.76-8.393-8.393
			s3.76-8.393,8.393-8.393h16.787C248.043,151.082,251.803,154.842,251.803,159.475z M193.049,151.082
			c4.633,0,8.393,3.76,8.393,8.393s-3.76,8.393-8.393,8.393s-8.393-3.76-8.393-8.393S188.416,151.082,193.049,151.082z
			 M193.049,193.049h67.148c4.633,0,8.393,3.76,8.393,8.393s-3.76,8.393-8.393,8.393h-67.148c-4.633,0-8.393-3.76-8.393-8.393
			S188.416,193.049,193.049,193.049z M243.41,251.803h-16.787c-4.633,0-8.393-3.76-8.393-8.393s3.76-8.393,8.393-8.393h16.787
			c4.633,0,8.393,3.76,8.393,8.393S248.043,251.803,243.41,251.803z M251.803,285.377c0,4.633-3.76,8.393-8.393,8.393h-16.787
			c-4.633,0-8.393-3.76-8.393-8.393c0-4.633,3.76-8.393,8.393-8.393h16.787C248.043,276.984,251.803,280.744,251.803,285.377z
			 M193.049,235.016c4.633,0,8.393,3.76,8.393,8.393s-3.76,8.393-8.393,8.393s-8.393-3.76-8.393-8.393
			S188.416,235.016,193.049,235.016z M193.049,276.984c4.633,0,8.393,3.76,8.393,8.393c0,4.633-3.76,8.393-8.393,8.393
			s-8.393-3.76-8.393-8.393C184.656,280.744,188.416,276.984,193.049,276.984z M193.049,318.951h67.148
			c4.633,0,8.393,3.76,8.393,8.393s-3.76,8.393-8.393,8.393h-67.148c-4.633,0-8.393-3.76-8.393-8.393
			S188.416,318.951,193.049,318.951z M251.803,369.311c0,4.633-3.76,8.393-8.393,8.393h-16.787c-4.633,0-8.393-3.76-8.393-8.393
			s3.76-8.393,8.393-8.393h16.787C248.043,360.918,251.803,364.678,251.803,369.311z M193.049,360.918
			c4.633,0,8.393,3.76,8.393,8.393s-3.76,8.393-8.393,8.393s-8.393-3.76-8.393-8.393S188.416,360.918,193.049,360.918z
			 M125.902,67.148h33.574c4.633,0,8.393,3.76,8.393,8.393s-3.76,8.393-8.393,8.393h-33.574c-4.633,0-8.393-3.76-8.393-8.393
			S121.268,67.148,125.902,67.148z M159.475,335.738c-4.633,0-8.393-3.76-8.393-8.393s3.76-8.393,8.393-8.393
			s8.393,3.76,8.393,8.393S164.109,335.738,159.475,335.738z M167.869,369.311c0,4.633-3.76,8.393-8.393,8.393h-33.574
			c-4.633,0-8.393-3.76-8.393-8.393s3.76-8.393,8.393-8.393h33.574C164.109,360.918,167.869,364.678,167.869,369.311z
			 M159.475,293.771h-33.574c-4.633,0-8.393-3.76-8.393-8.393c0-4.633,3.76-8.393,8.393-8.393h33.574
			c4.633,0,8.393,3.76,8.393,8.393C167.869,290.01,164.109,293.771,159.475,293.771z M159.475,251.803h-33.574
			c-4.633,0-8.393-3.76-8.393-8.393s3.76-8.393,8.393-8.393h33.574c4.633,0,8.393,3.76,8.393,8.393S164.109,251.803,159.475,251.803
			z M159.475,209.836c-4.633,0-8.393-3.76-8.393-8.393s3.76-8.393,8.393-8.393s8.393,3.76,8.393,8.393
			S164.109,209.836,159.475,209.836z M159.475,167.869h-33.574c-4.633,0-8.393-3.76-8.393-8.393s3.76-8.393,8.393-8.393h33.574
			c4.633,0,8.393,3.76,8.393,8.393S164.109,167.869,159.475,167.869z M159.475,125.902c-4.633,0-8.393-3.76-8.393-8.393
			s3.76-8.393,8.393-8.393s8.393,3.76,8.393,8.393S164.109,125.902,159.475,125.902z M92.328,67.148c4.633,0,8.393,3.76,8.393,8.393
			s-3.76,8.393-8.393,8.393s-8.393-3.76-8.393-8.393S87.695,67.148,92.328,67.148z M92.328,109.115h33.574
			c4.633,0,8.393,3.76,8.393,8.393s-3.76,8.393-8.393,8.393H92.328c-4.633,0-8.393-3.76-8.393-8.393S87.695,109.115,92.328,109.115z
			 M92.328,151.082c4.633,0,8.393,3.76,8.393,8.393s-3.76,8.393-8.393,8.393s-8.393-3.76-8.393-8.393S87.695,151.082,92.328,151.082
			z M92.328,193.049h33.574c4.633,0,8.393,3.76,8.393,8.393s-3.76,8.393-8.393,8.393H92.328c-4.633,0-8.393-3.76-8.393-8.393
			S87.695,193.049,92.328,193.049z M92.328,235.016c4.633,0,8.393,3.76,8.393,8.393s-3.76,8.393-8.393,8.393
			s-8.393-3.76-8.393-8.393S87.695,235.016,92.328,235.016z M92.328,276.984c4.633,0,8.393,3.76,8.393,8.393
			c0,4.633-3.76,8.393-8.393,8.393s-8.393-3.76-8.393-8.393C83.934,280.744,87.695,276.984,92.328,276.984z M92.328,318.951h33.574
			c4.633,0,8.393,3.76,8.393,8.393s-3.76,8.393-8.393,8.393H92.328c-4.633,0-8.393-3.76-8.393-8.393S87.695,318.951,92.328,318.951z
			 M92.328,360.918c4.633,0,8.393,3.76,8.393,8.393s-3.76,8.393-8.393,8.393s-8.393-3.76-8.393-8.393S87.695,360.918,92.328,360.918
			z M50.361,486.82c-18.516,0-33.574-15.058-33.574-33.574v-8.393h302.164v8.393c0,12.884,4.868,24.651,12.859,33.574H50.361z
			 M335.738,377.705h-25.18c-4.633,0-8.393-3.76-8.393-8.393s3.76-8.393,8.393-8.393h25.18c4.633,0,8.393,3.76,8.393,8.393
			S340.371,377.705,335.738,377.705z M369.311,377.705c-4.633,0-8.393-3.76-8.393-8.393s3.76-8.393,8.393-8.393
			s8.393,3.76,8.393,8.393S373.945,377.705,369.311,377.705z M369.311,335.738h-41.967c-4.633,0-8.393-3.76-8.393-8.393
			s3.76-8.393,8.393-8.393h41.967c4.633,0,8.393,3.76,8.393,8.393S373.945,335.738,369.311,335.738z M369.311,293.771
			c-4.633,0-8.393-3.76-8.393-8.393c0-4.633,3.76-8.393,8.393-8.393s8.393,3.76,8.393,8.393
			C377.705,290.01,373.945,293.771,369.311,293.771z M369.311,251.803c-4.633,0-8.393-3.76-8.393-8.393s3.76-8.393,8.393-8.393
			s8.393,3.76,8.393,8.393S373.945,251.803,369.311,251.803z M369.311,209.836h-41.967c-4.633,0-8.393-3.76-8.393-8.393
			s3.76-8.393,8.393-8.393h41.967c4.633,0,8.393,3.76,8.393,8.393S373.945,209.836,369.311,209.836z M369.311,167.869
			c-4.633,0-8.393-3.76-8.393-8.393s3.76-8.393,8.393-8.393s8.393,3.76,8.393,8.393S373.945,167.869,369.311,167.869z
			 M369.311,125.902h-41.967c-4.633,0-8.393-3.76-8.393-8.393s3.76-8.393,8.393-8.393h41.967c4.633,0,8.393,3.76,8.393,8.393
			S373.945,125.902,369.311,125.902z M369.311,83.934c-4.633,0-8.393-3.76-8.393-8.393s3.76-8.393,8.393-8.393
			s8.393,3.76,8.393,8.393S373.945,83.934,369.311,83.934z M486.82,235.016h-67.148V50.361c0-18.516,15.058-33.574,33.574-33.574
			c18.516,0,33.574,15.058,33.574,33.574V235.016z"/>
	</g>
</g>
</svg>