<?xml version='1.0' encoding='iso-8859-1'?>
<!DOCTYPE svg PUBLIC '-//W3C//DTD SVG 1.1//EN' 'http://www.w3.org/Graphics/SVG/1.1/DTD/svg11.dtd'>
<!-- Uploaded to: SVG Repo, www.svgrepo.com, Generator: SVG Repo Mixer Tools -->
<svg fill="#000000" version="1.1" xmlns="http://www.w3.org/2000/svg" viewBox="0 0 512 512" xmlns:xlink="http://www.w3.org/1999/xlink" enable-background="new 0 0 512 512">
  <g>
    <rect width="32" x="112" y="128" height="64"/>
    <path d="M20.567,144H80v-32c0-8.836,7.164-16,16-16h64c8.836,0,16,7.164,16,16v32h52.805l26.75-48.563   c5.461-9.914,5.273-21.977-0.484-31.719C249.313,53.977,238.844,48,227.524,48H32c-10.375,0-20.109,5.031-26.109,13.5   c-6,8.469-7.524,19.313-4.078,29.109L20.567,144z"/>
    <path d="M492.242,225.25c-11.945-4.969-25.727-2.227-34.867,6.938l-37.852,37.852c-14.117,14.109-34.977,19.898-54.43,15.063   l-10.344-2.586c-4.906-1.227-9.289-2.227-13.305-3.141c-17.539-3.992-20.234-4.609-30.141-14.484l-76.086-80.875   c-2.469-2.473-4.551-5.016-6.23-8.016H176v32c0,8.836-7.164,16-16,16H96c-8.836,0-16-7.164-16-16v-32H28.133   c0,6-0.793,11.832-2.438,17.586l-18.305,64.07C2.485,274.813,0,292.562,0,310.406V432c0,17.672,14.328,32,32,32h128   c17.672,0,32-14.328,32-32v-12.836c13,6.578,25.477,12.867,31.922,16.617l9.289,5.508C252.672,452.969,271.047,464,304,464h48   c79.25,0,136.478-76.244,156-175c2.833-14.333,4-24.5,4-34.188C512,241.375,504.203,230.203,492.242,225.25z"/>
  </g>
</svg>